<svg xmlns="http://www.w3.org/2000/svg" xmlns:xlink="http://www.w3.org/1999/xlink" width="600" zoomAndPan="magnify" viewBox="0 0 450 449.999984" height="600" preserveAspectRatio="xMidYMid meet" version="1.0"><defs><clipPath id="252b3de900"><path d="M 63.839844 217.875 L 205.9375 217.875 L 205.9375 233.878906 L 63.839844 233.878906 Z M 63.839844 217.875 " clip-rule="nonzero"/></clipPath><clipPath id="149d9857b4"><path d="M 0.425781 216.804688 L 49.070312 216.804688 L 49.070312 233.890625 L 0.425781 233.890625 Z M 0.425781 216.804688 " clip-rule="nonzero"/></clipPath><clipPath id="77ac5deaf1"><path d="M 214.617188 263.863281 L 228.851562 263.863281 L 228.851562 425.195312 L 214.617188 425.195312 Z M 214.617188 263.863281 " clip-rule="nonzero"/></clipPath><clipPath id="c1991a2497"><path d="M 214.613281 303.890625 L 255.03125 303.890625 L 255.03125 318.804688 L 214.613281 318.804688 Z M 214.613281 303.890625 " clip-rule="nonzero"/></clipPath><clipPath id="17168fae11"><path d="M 214.613281 410.945312 L 261.117188 410.945312 L 261.117188 425.179688 L 214.613281 425.179688 Z M 214.613281 410.945312 " clip-rule="nonzero"/></clipPath><clipPath id="0648723f0c"><path d="M 267.390625 376.5 L 293.601562 376.5 L 293.601562 391.582031 L 267.390625 391.582031 Z M 267.390625 376.5 " clip-rule="nonzero"/></clipPath><clipPath id="a32a81ed66"><path d="M 305.03125 343.378906 L 353.855469 343.378906 L 353.855469 357.613281 L 305.03125 357.613281 Z M 305.03125 343.378906 " clip-rule="nonzero"/></clipPath><clipPath id="5925afe042"><path d="M 289.113281 296.777344 L 378.851562 296.777344 L 378.851562 311.015625 L 289.113281 311.015625 Z M 289.113281 296.777344 " clip-rule="nonzero"/></clipPath><clipPath id="7584e87325"><path d="M 326.195312 263.863281 L 341.78125 263.863281 L 341.78125 300.945312 L 326.195312 300.945312 Z M 326.195312 263.863281 " clip-rule="nonzero"/></clipPath><clipPath id="6a3422ae16"><path d="M 324.054688 410.941406 L 433.660156 410.941406 L 433.660156 425.179688 L 324.054688 425.179688 Z M 324.054688 410.941406 " clip-rule="nonzero"/></clipPath><clipPath id="5d52b23c05"><path d="M 368.125 376.742188 L 382.578125 376.742188 L 382.578125 417.832031 L 368.125 417.832031 Z M 368.125 376.742188 " clip-rule="nonzero"/></clipPath><clipPath id="20195a7af2"><path d="M 419.394531 311.023438 L 433.660156 311.023438 L 433.660156 412.027344 L 419.394531 412.027344 Z M 419.394531 311.023438 " clip-rule="nonzero"/></clipPath><clipPath id="f0188feb2e"><path d="M 419.394531 263.863281 L 433.660156 263.863281 L 433.660156 286.261719 L 419.394531 286.261719 Z M 419.394531 263.863281 " clip-rule="nonzero"/></clipPath><clipPath id="7ed78d54d1"><path d="M 255.03125 243.980469 L 290.4375 243.980469 L 290.4375 258.214844 L 255.03125 258.214844 Z M 255.03125 243.980469 " clip-rule="nonzero"/></clipPath><clipPath id="96160c77a0"><path d="M 293.605469 210.367188 L 326.199219 210.367188 L 326.199219 225.957031 L 293.605469 225.957031 Z M 293.605469 210.367188 " clip-rule="nonzero"/></clipPath><clipPath id="76cf17fdde"><path d="M 364.832031 228.402344 L 384.566406 228.402344 L 384.566406 243.992188 L 364.832031 243.992188 Z M 364.832031 228.402344 " clip-rule="nonzero"/></clipPath><clipPath id="ef3f9b100d"><path d="M 405.132812 212.8125 L 433.664062 212.8125 L 433.664062 228.402344 L 405.132812 228.402344 Z M 405.132812 212.8125 " clip-rule="nonzero"/></clipPath><clipPath id="60e50d2bda"><path d="M 0.425781 261.914062 L 189.089844 261.914062 L 189.089844 450 L 0.425781 450 Z M 0.425781 261.914062 " clip-rule="nonzero"/></clipPath><clipPath id="74de61ee67"><path d="M 41.335938 303.550781 L 147.929688 303.550781 L 147.929688 408.695312 L 41.335938 408.695312 Z M 41.335938 303.550781 " clip-rule="nonzero"/></clipPath><clipPath id="a7213fd734"><path d="M 0.425781 0.371094 L 189.089844 0.371094 L 189.089844 189.035156 L 0.425781 189.035156 Z M 0.425781 0.371094 " clip-rule="nonzero"/></clipPath><clipPath id="0518eb0748"><path d="M 41.335938 42.003906 L 147.929688 42.003906 L 147.929688 147.152344 L 41.335938 147.152344 Z M 41.335938 42.003906 " clip-rule="nonzero"/></clipPath><clipPath id="4c348f827e"><path d="M 261.859375 0.371094 L 450 0.371094 L 450 189.035156 L 261.859375 189.035156 Z M 261.859375 0.371094 " clip-rule="nonzero"/></clipPath><clipPath id="365af8e311"><path d="M 302.769531 42.003906 L 409.363281 42.003906 L 409.363281 147.152344 L 302.769531 147.152344 Z M 302.769531 42.003906 " clip-rule="nonzero"/></clipPath><clipPath id="47649605d4"><path d="M 216.796875 0.367188 L 234.253906 0.367188 L 234.253906 79.894531 L 216.796875 79.894531 Z M 216.796875 0.367188 " clip-rule="nonzero"/></clipPath><clipPath id="521f320121"><path d="M 216.796875 109.304688 L 234.253906 109.304688 L 234.253906 151.667969 L 216.796875 151.667969 Z M 216.796875 109.304688 " clip-rule="nonzero"/></clipPath><clipPath id="c11ba6c0bc"><path d="M 216.796875 170.449219 L 234.253906 170.449219 L 234.253906 197.242188 L 216.796875 197.242188 Z M 216.796875 170.449219 " clip-rule="nonzero"/></clipPath></defs><g clip-path="url(#252b3de900)"><path fill="#191308" d="M 63.839844 233.878906 L 63.839844 217.875 L 205.9375 217.875 L 205.9375 233.878906 Z M 63.839844 233.878906 " fill-opacity="1" fill-rule="nonzero"/></g><g clip-path="url(#149d9857b4)"><path fill="#191308" d="M 0.425781 233.890625 L 0.425781 216.804688 L 49.070312 216.804688 L 49.070312 233.890625 Z M 0.425781 233.890625 " fill-opacity="1" fill-rule="nonzero"/></g><g clip-path="url(#77ac5deaf1)"><path fill="#191308" d="M 214.617188 263.863281 L 228.851562 263.863281 L 228.851562 425.195312 L 214.617188 425.195312 Z M 214.617188 263.863281 " fill-opacity="1" fill-rule="nonzero"/></g><g clip-path="url(#c1991a2497)"><path fill="#191308" d="M 214.613281 318.804688 L 214.613281 303.890625 L 255.03125 303.890625 L 255.03125 318.804688 Z M 214.613281 318.804688 " fill-opacity="1" fill-rule="nonzero"/></g><g clip-path="url(#17168fae11)"><path fill="#191308" d="M 214.613281 425.179688 L 214.613281 410.945312 L 261.117188 410.945312 L 261.117188 425.179688 Z M 214.613281 425.179688 " fill-opacity="1" fill-rule="nonzero"/></g><g clip-path="url(#0648723f0c)"><path fill="#191308" d="M 267.390625 391.582031 L 267.390625 376.5 L 293.601562 376.5 L 293.601562 391.582031 Z M 267.390625 391.582031 " fill-opacity="1" fill-rule="nonzero"/></g><g clip-path="url(#a32a81ed66)"><path fill="#191308" d="M 305.03125 357.613281 L 305.03125 343.378906 L 353.855469 343.378906 L 353.855469 357.613281 Z M 305.03125 357.613281 " fill-opacity="1" fill-rule="nonzero"/></g><g clip-path="url(#5925afe042)"><path fill="#191308" d="M 289.113281 311.015625 L 289.113281 296.777344 L 378.851562 296.777344 L 378.851562 311.015625 Z M 289.113281 311.015625 " fill-opacity="1" fill-rule="nonzero"/></g><g clip-path="url(#7584e87325)"><path fill="#191308" d="M 326.195312 263.863281 L 341.78125 263.863281 L 341.78125 300.945312 L 326.195312 300.945312 Z M 326.195312 263.863281 " fill-opacity="1" fill-rule="nonzero"/></g><g clip-path="url(#6a3422ae16)"><path fill="#191308" d="M 324.054688 425.179688 L 324.054688 410.941406 L 433.660156 410.941406 L 433.660156 425.179688 Z M 324.054688 425.179688 " fill-opacity="1" fill-rule="nonzero"/></g><g clip-path="url(#5d52b23c05)"><path fill="#191308" d="M 368.125 376.742188 L 382.578125 376.742188 L 382.578125 417.832031 L 368.125 417.832031 Z M 368.125 376.742188 " fill-opacity="1" fill-rule="nonzero"/></g><g clip-path="url(#20195a7af2)"><path fill="#191308" d="M 419.394531 311.023438 L 433.660156 311.023438 L 433.660156 412.027344 L 419.394531 412.027344 Z M 419.394531 311.023438 " fill-opacity="1" fill-rule="nonzero"/></g><g clip-path="url(#f0188feb2e)"><path fill="#191308" d="M 419.394531 263.863281 L 433.660156 263.863281 L 433.660156 286.261719 L 419.394531 286.261719 Z M 419.394531 263.863281 " fill-opacity="1" fill-rule="nonzero"/></g><g clip-path="url(#7ed78d54d1)"><path fill="#191308" d="M 255.03125 258.214844 L 255.03125 243.980469 L 290.4375 243.980469 L 290.4375 258.214844 Z M 255.03125 258.214844 " fill-opacity="1" fill-rule="nonzero"/></g><g clip-path="url(#96160c77a0)"><path fill="#191308" d="M 293.605469 225.957031 L 293.605469 210.367188 L 326.199219 210.367188 L 326.199219 225.957031 Z M 293.605469 225.957031 " fill-opacity="1" fill-rule="nonzero"/></g><g clip-path="url(#76cf17fdde)"><path fill="#191308" d="M 364.832031 243.992188 L 364.832031 228.402344 L 384.566406 228.402344 L 384.566406 243.992188 Z M 364.832031 243.992188 " fill-opacity="1" fill-rule="nonzero"/></g><g clip-path="url(#ef3f9b100d)"><path fill="#191308" d="M 405.132812 228.402344 L 405.132812 212.8125 L 433.664062 212.8125 L 433.664062 228.402344 Z M 405.132812 228.402344 " fill-opacity="1" fill-rule="nonzero"/></g><g clip-path="url(#60e50d2bda)"><path fill="#191308" d="M 10.90625 272.394531 L 178.609375 272.394531 L 178.609375 440.097656 L 10.90625 440.097656 Z M 0.425781 450.578125 L 189.089844 450.578125 L 189.089844 261.914062 L 0.425781 261.914062 L 0.425781 450.578125 " fill-opacity="1" fill-rule="nonzero"/></g><g clip-path="url(#74de61ee67)"><path fill="#191308" d="M 41.335938 303.550781 L 147.929688 303.550781 L 147.929688 408.695312 L 41.335938 408.695312 Z M 41.335938 303.550781 " fill-opacity="1" fill-rule="nonzero"/></g><g clip-path="url(#a7213fd734)"><path fill="#191308" d="M 10.90625 10.851562 L 178.609375 10.851562 L 178.609375 178.554688 L 10.90625 178.554688 Z M 0.425781 189.035156 L 189.089844 189.035156 L 189.089844 0.371094 L 0.425781 0.371094 L 0.425781 189.035156 " fill-opacity="1" fill-rule="nonzero"/></g><g clip-path="url(#0518eb0748)"><path fill="#191308" d="M 41.335938 42.003906 L 147.929688 42.003906 L 147.929688 147.152344 L 41.335938 147.152344 Z M 41.335938 42.003906 " fill-opacity="1" fill-rule="nonzero"/></g><g clip-path="url(#4c348f827e)"><path fill="#191308" d="M 272.339844 10.851562 L 440.042969 10.851562 L 440.042969 178.554688 L 272.339844 178.554688 Z M 261.859375 189.035156 L 450.523438 189.035156 L 450.523438 0.371094 L 261.859375 0.371094 L 261.859375 189.035156 " fill-opacity="1" fill-rule="nonzero"/></g><g clip-path="url(#365af8e311)"><path fill="#191308" d="M 302.769531 42.003906 L 409.363281 42.003906 L 409.363281 147.152344 L 302.769531 147.152344 Z M 302.769531 42.003906 " fill-opacity="1" fill-rule="nonzero"/></g><g clip-path="url(#47649605d4)"><path fill="#191308" d="M 234.253906 79.894531 L 216.796875 79.894531 L 216.796875 0.367188 L 234.253906 0.367188 Z M 234.253906 79.894531 " fill-opacity="1" fill-rule="nonzero"/></g><g clip-path="url(#521f320121)"><path fill="#191308" d="M 234.253906 151.667969 L 216.796875 151.667969 L 216.796875 109.304688 L 234.253906 109.304688 Z M 234.253906 151.667969 " fill-opacity="1" fill-rule="nonzero"/></g><g clip-path="url(#c11ba6c0bc)"><path fill="#191308" d="M 234.253906 197.242188 L 216.796875 197.242188 L 216.796875 170.449219 L 234.253906 170.449219 Z M 234.253906 197.242188 " fill-opacity="1" fill-rule="nonzero"/></g></svg>