<svg xmlns="http://www.w3.org/2000/svg" xmlns:xlink="http://www.w3.org/1999/xlink" width="900" zoomAndPan="magnify" viewBox="0 0 675 449.999984" height="600" preserveAspectRatio="xMidYMid meet" version="1.0"><defs><g/></defs><g fill="#000000" fill-opacity="1"><g transform="translate(21.634652, 292.958682)"><g><path d="M 10.515625 0 L 10.515625 -141.171875 L 58.953125 -141.171875 L 58.953125 -122.484375 L 32 -122.484375 L 32 -84.953125 L 57.03125 -84.953125 L 57.03125 -66.171875 L 32 -66.171875 L 32 0 Z M 10.515625 0 "/></g></g></g><g fill="#000000" fill-opacity="1"><g transform="translate(101.08832, 292.958682)"><g><path d="M 11.390625 0 L 11.390625 -141.171875 L 32.890625 -141.171875 L 32.890625 0 Z M 11.390625 0 "/></g></g></g><g fill="#000000" fill-opacity="1"><g transform="translate(160.970777, 292.958682)"><g><path d="M 32 -16.6875 L 39.0625 -16.6875 C 43.019531 -16.6875 45.894531 -17.96875 47.6875 -20.53125 C 49.476562 -23.101562 50.375 -27.8125 50.375 -34.65625 L 50.296875 -104.359375 C 50.296875 -111.679688 49.398438 -116.894531 47.609375 -120 C 45.816406 -123.101562 42.726562 -124.65625 38.34375 -124.65625 L 32 -124.65625 Z M 10.515625 0 L 10.515625 -141.171875 L 42.1875 -141.171875 C 52.5625 -141.171875 60.085938 -138.109375 64.765625 -131.984375 C 69.453125 -125.867188 71.796875 -116.847656 71.796875 -104.921875 L 71.875 -41.234375 C 71.875 -27.003906 69.519531 -16.570312 64.8125 -9.9375 C 60.101562 -3.3125 52.320312 0 41.46875 0 Z M 10.515625 0 "/></g></g></g><g fill="#000000" fill-opacity="1"><g transform="translate(257.188301, 292.958682)"><g><path d="M 10.59375 0 L 10.59375 -141.171875 L 57.921875 -141.171875 L 57.921875 -122.65625 L 32.09375 -122.65625 L 32.09375 -81.578125 L 56.625 -81.578125 L 56.625 -63.453125 L 32.09375 -63.453125 L 32.09375 -18.53125 L 58.875 -18.53125 L 58.875 0 Z M 10.59375 0 "/></g></g></g><g fill="#000000" fill-opacity="1"><g transform="translate(338.246157, 292.958682)"><g><path d="M 10.59375 0 L 10.59375 -141.171875 L 32.09375 -141.171875 L 32.09375 -18.296875 L 59.28125 -18.296875 L 59.28125 0 Z M 10.59375 0 "/></g></g></g><g fill="#000000" fill-opacity="1"><g transform="translate(414.892488, 292.958682)"><g><path d="M 70.1875 -38.5 C 70.1875 -24.863281 67.753906 -14.769531 62.890625 -8.21875 C 58.023438 -1.664062 50.378906 1.609375 39.953125 1.609375 C 29.523438 1.609375 21.726562 -1.878906 16.5625 -8.859375 C 11.40625 -15.835938 8.828125 -25.878906 8.828125 -38.984375 L 8.828125 -100.515625 C 8.828125 -121.523438 14.332031 -134.648438 25.34375 -139.890625 C 29.40625 -141.816406 34.328125 -142.78125 40.109375 -142.78125 C 59.953125 -142.78125 69.875 -130.269531 69.875 -105.25 L 69.875 -85.828125 L 49.09375 -85.828125 L 49.09375 -103.875 C 49.09375 -111.144531 48.476562 -116.34375 47.25 -119.46875 C 46.019531 -122.601562 43.613281 -124.171875 40.03125 -124.171875 C 36.445312 -124.171875 33.957031 -122.515625 32.5625 -119.203125 C 31.175781 -115.890625 30.484375 -110.804688 30.484375 -103.953125 L 30.484375 -38.015625 C 30.484375 -30.421875 31.148438 -24.992188 32.484375 -21.734375 C 33.828125 -18.472656 36.257812 -16.84375 39.78125 -16.84375 C 43.3125 -16.84375 45.742188 -18.5 47.078125 -21.8125 C 48.421875 -25.132812 49.09375 -30.617188 49.09375 -38.265625 L 49.09375 -58.484375 L 70.1875 -58.484375 Z M 70.1875 -38.5 "/></g></g></g><g fill="#000000" fill-opacity="1"><g transform="translate(507.580796, 292.958682)"><g><path d="M 10.59375 0 L 10.59375 -141.171875 L 32.09375 -141.171875 L 32.09375 -18.296875 L 59.28125 -18.296875 L 59.28125 0 Z M 10.59375 0 "/></g></g></g><g fill="#000000" fill-opacity="1"><g transform="translate(584.227127, 292.958682)"><g><path d="M 24.390625 0 L 24.390625 -56.390625 L 0.71875 -141.171875 L 21.25 -141.171875 L 35.21875 -88.390625 L 35.53125 -88.390625 L 47.96875 -141.171875 L 68.421875 -141.171875 L 45.890625 -56.390625 L 45.890625 0 Z M 24.390625 0 "/></g></g></g></svg>